<?xml version="1.0" standalone="no"?>
<!DOCTYPE svg PUBLIC "-//W3C//DTD SVG 20010904//EN"
 "http://www.w3.org/TR/2001/REC-SVG-20010904/DTD/svg10.dtd">
<svg version="1.0" xmlns="http://www.w3.org/2000/svg"
width="500" height="554.733" viewBox="0 0 500 554.733"
 preserveAspectRatio="xMidYMid meet">

<g transform="translate(0.000000,800.000000) scale(0.100000,-0.100000)"
fill="#000000" stroke="none">
<path d="M1600 4466 l0 -25 149 -3 150 -3 36 -35 c63 -62 71 -148 18 -211 -42
-50 -77 -59 -223 -59 l-130 0 0 -134 c0 -105 3 -136 15 -146 28 -23 35 0 35
116 l0 114 114 0 c105 0 118 2 167 28 43 22 59 38 81 81 35 66 36 119 4 188
-17 36 -38 60 -67 80 -41 27 -47 28 -196 31 l-153 3 0 -25z"/>
<path d="M2346 4481 c-15 -24 -256 -606 -256 -618 0 -19 30 -29 41 -12 4 8 59
135 121 282 102 244 113 266 124 245 6 -13 58 -133 114 -268 56 -135 108 -251
115 -259 15 -15 35 -7 35 15 0 8 -57 152 -127 319 -96 229 -132 305 -145 305
-9 0 -19 -4 -22 -9z"/>
<path d="M4192 4180 c-72 -172 -128 -318 -125 -326 8 -20 31 -17 43 6 6 11 58
133 116 272 58 139 109 256 112 260 4 3 59 -118 122 -270 82 -196 121 -278
133 -280 9 -2 20 3 23 11 3 8 -53 153 -125 323 -100 240 -134 310 -148 312
-17 3 -39 -43 -151 -308z"/>
<path d="M4890 4481 c-97 -32 -187 -116 -216 -203 -9 -30 -17 -81 -16 -121 1
-161 124 -293 293 -313 95 -11 230 42 237 94 4 29 -17 29 -63 -2 -154 -105
-376 -8 -415 179 -24 117 29 228 139 293 40 24 57 27 131 27 75 0 91 -3 132
-27 50 -30 73 -34 83 -18 10 16 -13 39 -69 67 -40 21 -69 27 -131 29 -44 2
-91 0 -105 -5z"/>
<path d="M5315 4478 c-3 -7 -4 -153 -3 -323 3 -302 3 -310 23 -310 19 0 20 8
25 150 l5 150 38 5 c51 7 51 23 0 33 l-42 8 -3 147 c-3 131 -5 147 -21 150 -9
2 -19 -3 -22 -10z"/>
<path d="M5790 4342 c0 -147 0 -150 -22 -156 -13 -3 -33 -6 -46 -6 -39 0 -19
-25 24 -30 l39 -5 3 -145 c1 -79 7 -149 12 -154 6 -6 15 -4 25 4 13 11 15 52
13 324 l-3 311 -22 3 c-23 3 -23 3 -23 -146z"/>
<path d="M5950 4165 l0 -325 228 2 c219 3 227 4 227 23 0 19 -8 20 -200 25
l-200 5 -3 67 -3 67 68 3 c60 3 68 5 68 23 0 18 -8 20 -67 23 l-68 3 0 179 0
180 203 2 c201 3 202 3 205 26 l3 22 -230 0 -231 0 0 -325z"/>
<path d="M4700 3565 c0 -43 4 -75 10 -75 6 0 10 32 10 75 0 43 -4 75 -10 75
-6 0 -10 -32 -10 -75z"/>
<path d="M4832 3563 c2 -70 2 -72 5 -20 2 31 7 57 11 57 4 0 15 -12 24 -27 10
-16 28 -41 42 -58 l25 -30 -1 80 -1 80 -6 -60 -6 -60 -40 57 c-22 32 -43 57
-47 58 -5 0 -7 -35 -6 -77z"/>
<path d="M5050 3630 c0 -5 9 -10 20 -10 18 0 20 -7 20 -65 0 -37 4 -65 10 -65
6 0 10 28 10 65 0 58 2 65 20 65 11 0 20 5 20 10 0 6 -22 10 -50 10 -27 0 -50
-4 -50 -10z"/>
<path d="M5260 3565 l0 -75 40 0 c22 0 40 5 40 10 0 6 -16 10 -35 10 -30 0
-35 3 -35 24 0 20 6 25 33 29 l32 4 -32 1 c-28 2 -33 6 -33 27 0 22 4 25 35
25 19 0 35 5 35 10 0 6 -18 10 -40 10 l-40 0 0 -75z"/>
<path d="M5452 3563 c0 -43 3 -63 5 -45 3 23 9 32 23 32 12 0 26 -13 36 -32
10 -18 19 -28 21 -21 2 7 -1 22 -7 34 -9 15 -9 24 -1 32 32 32 1 77 -53 77
-26 0 -26 -1 -24 -77z m72 42 c7 -18 -21 -47 -43 -43 -9 2 -17 15 -19 31 -3
24 0 27 26 27 17 0 32 -6 36 -15z"/>
<path d="M5653 3565 c0 -44 2 -61 4 -37 2 23 2 59 0 80 -2 20 -4 1 -4 -43z"/>
<path d="M5790 3620 c-23 -23 -27 -77 -6 -105 8 -11 26 -18 46 -18 40 0 60 24
60 70 0 37 -29 73 -60 73 -11 0 -29 -9 -40 -20z m81 -27 c6 -15 6 -36 1 -52
-12 -37 -60 -37 -81 0 -13 24 -13 29 2 53 24 36 64 35 78 -1z"/>
<path d="M6002 3563 c0 -43 3 -63 5 -45 5 42 35 43 60 2 23 -40 38 -39 17 1
-11 23 -13 34 -5 42 32 32 0 77 -53 77 -26 0 -26 -1 -24 -77z m75 41 c7 -19
-23 -46 -47 -42 -8 2 -16 16 -18 31 -3 24 0 27 28 27 19 0 33 -6 37 -16z"/>
<path d="M6218 3629 c-32 -18 -16 -69 22 -69 22 0 40 -19 33 -36 -6 -17 -45
-18 -61 -2 -9 9 -12 9 -12 0 0 -21 40 -35 67 -23 35 16 27 52 -17 72 -19 9
-35 23 -35 30 0 18 46 24 56 8 4 -8 12 -10 16 -5 8 8 -24 36 -41 36 -6 0 -19
-5 -28 -11z"/>
<path d="M2283 3563 c378 -2 996 -2 1375 0 378 1 68 2 -688 2 -756 0 -1066 -1
-687 -2z"/>
</g>
</svg>
